<mxfile host="app.diagrams.net" modified="2023-07-16T13:45:19.050Z" agent="Mozilla/5.0 (Windows NT 10.0; Win64; x64) AppleWebKit/537.36 (KHTML, like Gecko) Chrome/114.0.0.0 Safari/537.36" etag="b0MNxB0kDhDjAyBH1Jse" version="21.6.2" type="device">
  <diagram name="Page-1" id="aT2LgdTPgBoh8SLEcqav">
    <mxGraphModel dx="1050" dy="581" grid="1" gridSize="10" guides="1" tooltips="1" connect="1" arrows="1" fold="1" page="1" pageScale="1" pageWidth="827" pageHeight="1169" math="0" shadow="0">
      <root>
        <mxCell id="0" />
        <mxCell id="1" parent="0" />
        <mxCell id="-DHRdyFqCkiw1h7sbN11-4" style="edgeStyle=orthogonalEdgeStyle;rounded=0;orthogonalLoop=1;jettySize=auto;html=1;" parent="1" source="-DHRdyFqCkiw1h7sbN11-2" target="-DHRdyFqCkiw1h7sbN11-5" edge="1">
          <mxGeometry relative="1" as="geometry">
            <mxPoint x="405" y="160" as="targetPoint" />
          </mxGeometry>
        </mxCell>
        <mxCell id="-DHRdyFqCkiw1h7sbN11-2" value="" style="ellipse;html=1;shape=startState;fillColor=#000000;strokeColor=#ff0000;" parent="1" vertex="1">
          <mxGeometry x="390" y="70" width="30" height="30" as="geometry" />
        </mxCell>
        <mxCell id="-DHRdyFqCkiw1h7sbN11-5" value="page load" style="rounded=1;whiteSpace=wrap;html=1;arcSize=40;fontColor=#000000;fillColor=#ffffc0;strokeColor=#ff0000;" parent="1" vertex="1">
          <mxGeometry x="345" y="140" width="120" height="40" as="geometry" />
        </mxCell>
        <mxCell id="-DHRdyFqCkiw1h7sbN11-6" value="data is fetched by api" style="rounded=1;whiteSpace=wrap;html=1;arcSize=40;fontColor=#000000;fillColor=#ffffc0;strokeColor=#ff0000;" parent="1" vertex="1">
          <mxGeometry x="320" y="230" width="170" height="40" as="geometry" />
        </mxCell>
        <mxCell id="-DHRdyFqCkiw1h7sbN11-7" value="" style="edgeStyle=orthogonalEdgeStyle;html=1;verticalAlign=bottom;endArrow=open;endSize=8;strokeColor=#ff0000;rounded=0;" parent="1" source="-DHRdyFqCkiw1h7sbN11-6" edge="1">
          <mxGeometry relative="1" as="geometry">
            <mxPoint x="405" y="330" as="targetPoint" />
          </mxGeometry>
        </mxCell>
        <mxCell id="-DHRdyFqCkiw1h7sbN11-8" value="displays the default city(Reigate &amp;amp; Banstead)" style="rounded=1;whiteSpace=wrap;html=1;arcSize=40;fontColor=#000000;fillColor=#ffffc0;strokeColor=#ff0000;" parent="1" vertex="1">
          <mxGeometry x="300" y="330" width="230" height="40" as="geometry" />
        </mxCell>
        <mxCell id="-DHRdyFqCkiw1h7sbN11-9" value="" style="edgeStyle=orthogonalEdgeStyle;html=1;verticalAlign=bottom;endArrow=open;endSize=8;strokeColor=#ff0000;rounded=0;" parent="1" source="-DHRdyFqCkiw1h7sbN11-8" edge="1">
          <mxGeometry relative="1" as="geometry">
            <mxPoint x="414" y="430" as="targetPoint" />
          </mxGeometry>
        </mxCell>
        <mxCell id="-DHRdyFqCkiw1h7sbN11-11" value="search bar(decided by user)" style="text;html=1;align=center;verticalAlign=middle;resizable=0;points=[];autosize=1;strokeColor=none;fillColor=none;" parent="1" vertex="1">
          <mxGeometry x="325" y="508" width="170" height="30" as="geometry" />
        </mxCell>
        <mxCell id="-DHRdyFqCkiw1h7sbN11-14" value="request to api" style="rounded=1;whiteSpace=wrap;html=1;arcSize=40;fontColor=#000000;fillColor=#ffffc0;strokeColor=#ff0000;" parent="1" vertex="1">
          <mxGeometry x="130" y="450" width="120" height="40" as="geometry" />
        </mxCell>
        <mxCell id="-DHRdyFqCkiw1h7sbN11-15" value="" style="edgeStyle=orthogonalEdgeStyle;html=1;verticalAlign=bottom;endArrow=open;endSize=8;strokeColor=#ff0000;rounded=0;" parent="1" source="-DHRdyFqCkiw1h7sbN11-14" edge="1">
          <mxGeometry relative="1" as="geometry">
            <mxPoint x="160" y="550" as="targetPoint" />
          </mxGeometry>
        </mxCell>
        <mxCell id="-DHRdyFqCkiw1h7sbN11-16" value="data is received through api" style="rounded=1;whiteSpace=wrap;html=1;arcSize=40;fontColor=#000000;fillColor=#ffffc0;strokeColor=#ff0000;" parent="1" vertex="1">
          <mxGeometry x="110" y="550" width="120" height="40" as="geometry" />
        </mxCell>
        <mxCell id="-DHRdyFqCkiw1h7sbN11-17" value="" style="edgeStyle=orthogonalEdgeStyle;html=1;verticalAlign=bottom;endArrow=open;endSize=8;strokeColor=#ff0000;rounded=0;entryX=0.5;entryY=0;entryDx=0;entryDy=0;" parent="1" source="-DHRdyFqCkiw1h7sbN11-16" target="-DHRdyFqCkiw1h7sbN11-18" edge="1">
          <mxGeometry relative="1" as="geometry">
            <mxPoint x="170" y="650" as="targetPoint" />
          </mxGeometry>
        </mxCell>
        <mxCell id="-DHRdyFqCkiw1h7sbN11-30" style="edgeStyle=orthogonalEdgeStyle;rounded=0;orthogonalLoop=1;jettySize=auto;html=1;exitX=0.5;exitY=1;exitDx=0;exitDy=0;entryX=0;entryY=0.5;entryDx=0;entryDy=0;" parent="1" source="-DHRdyFqCkiw1h7sbN11-18" target="-DHRdyFqCkiw1h7sbN11-29" edge="1">
          <mxGeometry relative="1" as="geometry" />
        </mxCell>
        <mxCell id="-DHRdyFqCkiw1h7sbN11-18" value="display the weather info in the sceen" style="rounded=1;whiteSpace=wrap;html=1;arcSize=40;fontColor=#000000;fillColor=#ffffc0;strokeColor=#ff0000;" parent="1" vertex="1">
          <mxGeometry x="110" y="660" width="120" height="50" as="geometry" />
        </mxCell>
        <mxCell id="-DHRdyFqCkiw1h7sbN11-26" style="edgeStyle=orthogonalEdgeStyle;rounded=0;orthogonalLoop=1;jettySize=auto;html=1;exitX=0;exitY=0.5;exitDx=0;exitDy=0;entryX=1;entryY=0.5;entryDx=0;entryDy=0;" parent="1" source="-DHRdyFqCkiw1h7sbN11-20" target="-DHRdyFqCkiw1h7sbN11-14" edge="1">
          <mxGeometry relative="1" as="geometry" />
        </mxCell>
        <mxCell id="-DHRdyFqCkiw1h7sbN11-31" style="edgeStyle=orthogonalEdgeStyle;rounded=0;orthogonalLoop=1;jettySize=auto;html=1;exitX=1;exitY=0.5;exitDx=0;exitDy=0;entryX=0;entryY=0.5;entryDx=0;entryDy=0;" parent="1" source="-DHRdyFqCkiw1h7sbN11-20" target="-DHRdyFqCkiw1h7sbN11-27" edge="1">
          <mxGeometry relative="1" as="geometry" />
        </mxCell>
        <mxCell id="-DHRdyFqCkiw1h7sbN11-20" value="" style="rhombus;fillColor=#FBFF82;" parent="1" vertex="1">
          <mxGeometry x="370" y="430" width="90" height="70" as="geometry" />
        </mxCell>
        <mxCell id="-DHRdyFqCkiw1h7sbN11-27" value="error" style="rounded=1;whiteSpace=wrap;html=1;arcSize=40;fontColor=#000000;fillColor=#ffffc0;strokeColor=#ff0000;" parent="1" vertex="1">
          <mxGeometry x="610" y="450" width="100" height="40" as="geometry" />
        </mxCell>
        <mxCell id="-DHRdyFqCkiw1h7sbN11-28" value="" style="edgeStyle=orthogonalEdgeStyle;html=1;verticalAlign=bottom;endArrow=open;endSize=8;strokeColor=#ff0000;rounded=0;entryX=0.5;entryY=0;entryDx=0;entryDy=0;" parent="1" source="-DHRdyFqCkiw1h7sbN11-27" target="-DHRdyFqCkiw1h7sbN11-29" edge="1">
          <mxGeometry relative="1" as="geometry">
            <mxPoint x="650" y="550" as="targetPoint" />
          </mxGeometry>
        </mxCell>
        <mxCell id="-DHRdyFqCkiw1h7sbN11-29" value="" style="ellipse;html=1;shape=endState;fillColor=#000000;strokeColor=#ff0000;" parent="1" vertex="1">
          <mxGeometry x="640" y="690" width="30" height="30" as="geometry" />
        </mxCell>
        <mxCell id="-DHRdyFqCkiw1h7sbN11-32" value="End" style="text;html=1;align=center;verticalAlign=middle;resizable=0;points=[];autosize=1;strokeColor=none;fillColor=none;" parent="1" vertex="1">
          <mxGeometry x="660" y="708" width="40" height="30" as="geometry" />
        </mxCell>
        <mxCell id="-DHRdyFqCkiw1h7sbN11-33" value="start" style="text;html=1;align=center;verticalAlign=middle;resizable=0;points=[];autosize=1;strokeColor=none;fillColor=none;" parent="1" vertex="1">
          <mxGeometry x="405" y="78" width="50" height="30" as="geometry" />
        </mxCell>
        <mxCell id="kg-w6DMaatekJpv0vUaN-1" value="sita karki&lt;br&gt;2358197" style="text;html=1;align=center;verticalAlign=middle;resizable=0;points=[];autosize=1;strokeColor=none;fillColor=none;" vertex="1" parent="1">
          <mxGeometry x="405" y="603" width="70" height="40" as="geometry" />
        </mxCell>
      </root>
    </mxGraphModel>
  </diagram>
</mxfile>
